<mxfile host="app.diagrams.net" modified="2023-10-31T14:44:04.703Z" agent="Mozilla/5.0 (Windows NT 10.0; Win64; x64) AppleWebKit/537.36 (KHTML, like Gecko) Chrome/118.0.0.0 Safari/537.36" etag="eT4u2-L6hRH9BY1S1ZGj" version="22.0.8" type="device">
  <diagram name="Trang-1" id="FBPmyeEP4Qe1sjYkFTW1">
    <mxGraphModel dx="1118" dy="604" grid="1" gridSize="10" guides="1" tooltips="1" connect="1" arrows="1" fold="1" page="1" pageScale="1" pageWidth="827" pageHeight="1169" math="0" shadow="0">
      <root>
        <mxCell id="0" />
        <mxCell id="1" parent="0" />
        <mxCell id="kLvij2d8cEy2oF4UCKkP-1" value="Chủ trọ" style="shape=umlActor;verticalLabelPosition=bottom;verticalAlign=top;html=1;outlineConnect=0;fontFamily=Times New Roman;" vertex="1" parent="1">
          <mxGeometry x="80" y="310" width="30" height="60" as="geometry" />
        </mxCell>
        <mxCell id="kLvij2d8cEy2oF4UCKkP-2" value="Quản lý phòng trọ" style="ellipse;whiteSpace=wrap;html=1;" vertex="1" parent="1">
          <mxGeometry x="350" y="300" width="120" height="80" as="geometry" />
        </mxCell>
        <mxCell id="kLvij2d8cEy2oF4UCKkP-3" value="Đăng nhập" style="ellipse;whiteSpace=wrap;html=1;" vertex="1" parent="1">
          <mxGeometry x="150" y="460" width="120" height="80" as="geometry" />
        </mxCell>
        <mxCell id="kLvij2d8cEy2oF4UCKkP-4" value="Thêm phòng trọ" style="ellipse;whiteSpace=wrap;html=1;" vertex="1" parent="1">
          <mxGeometry x="370" y="460" width="120" height="80" as="geometry" />
        </mxCell>
        <mxCell id="kLvij2d8cEy2oF4UCKkP-5" value="Cập nhật phòng trọ" style="ellipse;whiteSpace=wrap;html=1;" vertex="1" parent="1">
          <mxGeometry x="580" y="460" width="120" height="80" as="geometry" />
        </mxCell>
        <mxCell id="kLvij2d8cEy2oF4UCKkP-6" value="Xem danh sách&lt;br&gt;phòng trọ" style="ellipse;whiteSpace=wrap;html=1;" vertex="1" parent="1">
          <mxGeometry x="580" y="306" width="120" height="80" as="geometry" />
        </mxCell>
        <mxCell id="kLvij2d8cEy2oF4UCKkP-7" value="Xóa phòng trọ" style="ellipse;whiteSpace=wrap;html=1;" vertex="1" parent="1">
          <mxGeometry x="580" y="190" width="120" height="80" as="geometry" />
        </mxCell>
        <mxCell id="kLvij2d8cEy2oF4UCKkP-8" value="" style="endArrow=classic;html=1;rounded=0;entryX=0;entryY=0.5;entryDx=0;entryDy=0;" edge="1" parent="1" source="kLvij2d8cEy2oF4UCKkP-1" target="kLvij2d8cEy2oF4UCKkP-2">
          <mxGeometry width="50" height="50" relative="1" as="geometry">
            <mxPoint x="400" y="420" as="sourcePoint" />
            <mxPoint x="450" y="370" as="targetPoint" />
          </mxGeometry>
        </mxCell>
        <mxCell id="kLvij2d8cEy2oF4UCKkP-9" value="" style="endArrow=classic;html=1;rounded=0;exitX=0.094;exitY=0.888;exitDx=0;exitDy=0;exitPerimeter=0;entryX=1;entryY=0;entryDx=0;entryDy=0;dashed=1;" edge="1" parent="1" source="kLvij2d8cEy2oF4UCKkP-2" target="kLvij2d8cEy2oF4UCKkP-3">
          <mxGeometry width="50" height="50" relative="1" as="geometry">
            <mxPoint x="260" y="450" as="sourcePoint" />
            <mxPoint x="310" y="400" as="targetPoint" />
          </mxGeometry>
        </mxCell>
        <mxCell id="kLvij2d8cEy2oF4UCKkP-10" value="&amp;lt;&amp;lt;Include&amp;gt;&amp;gt;" style="text;html=1;strokeColor=none;fillColor=none;align=center;verticalAlign=middle;whiteSpace=wrap;rounded=0;" vertex="1" parent="1">
          <mxGeometry x="240" y="400" width="60" height="30" as="geometry" />
        </mxCell>
        <mxCell id="kLvij2d8cEy2oF4UCKkP-11" value="" style="endArrow=classic;html=1;rounded=0;dashed=1;entryX=0.351;entryY=0.025;entryDx=0;entryDy=0;entryPerimeter=0;" edge="1" parent="1" target="kLvij2d8cEy2oF4UCKkP-4">
          <mxGeometry width="50" height="50" relative="1" as="geometry">
            <mxPoint x="410" y="380" as="sourcePoint" />
            <mxPoint x="406" y="460" as="targetPoint" />
          </mxGeometry>
        </mxCell>
        <mxCell id="kLvij2d8cEy2oF4UCKkP-12" value="" style="endArrow=classic;html=1;rounded=0;dashed=1;entryX=0.181;entryY=0.004;entryDx=0;entryDy=0;entryPerimeter=0;exitX=1;exitY=1;exitDx=0;exitDy=0;" edge="1" parent="1" source="kLvij2d8cEy2oF4UCKkP-2" target="kLvij2d8cEy2oF4UCKkP-5">
          <mxGeometry width="50" height="50" relative="1" as="geometry">
            <mxPoint x="420" y="390" as="sourcePoint" />
            <mxPoint x="422" y="472" as="targetPoint" />
          </mxGeometry>
        </mxCell>
        <mxCell id="kLvij2d8cEy2oF4UCKkP-13" value="" style="endArrow=classic;html=1;rounded=0;dashed=1;entryX=0.007;entryY=0.419;entryDx=0;entryDy=0;entryPerimeter=0;exitX=1;exitY=0.5;exitDx=0;exitDy=0;" edge="1" parent="1" source="kLvij2d8cEy2oF4UCKkP-2" target="kLvij2d8cEy2oF4UCKkP-6">
          <mxGeometry width="50" height="50" relative="1" as="geometry">
            <mxPoint x="430" y="400" as="sourcePoint" />
            <mxPoint x="432" y="482" as="targetPoint" />
          </mxGeometry>
        </mxCell>
        <mxCell id="kLvij2d8cEy2oF4UCKkP-14" value="" style="endArrow=classic;html=1;rounded=0;dashed=1;entryX=0;entryY=0.5;entryDx=0;entryDy=0;exitX=1;exitY=0;exitDx=0;exitDy=0;" edge="1" parent="1" source="kLvij2d8cEy2oF4UCKkP-2" target="kLvij2d8cEy2oF4UCKkP-7">
          <mxGeometry width="50" height="50" relative="1" as="geometry">
            <mxPoint x="440" y="410" as="sourcePoint" />
            <mxPoint x="442" y="492" as="targetPoint" />
          </mxGeometry>
        </mxCell>
        <mxCell id="kLvij2d8cEy2oF4UCKkP-15" value="&amp;lt;&amp;lt;extend&amp;gt;&amp;gt;" style="text;html=1;strokeColor=none;fillColor=none;align=center;verticalAlign=middle;whiteSpace=wrap;rounded=0;" vertex="1" parent="1">
          <mxGeometry x="350" y="410" width="60" height="30" as="geometry" />
        </mxCell>
        <mxCell id="kLvij2d8cEy2oF4UCKkP-16" value="&amp;lt;&amp;lt;extend&amp;gt;&amp;gt;" style="text;html=1;strokeColor=none;fillColor=none;align=center;verticalAlign=middle;whiteSpace=wrap;rounded=0;" vertex="1" parent="1">
          <mxGeometry x="470" y="410" width="60" height="30" as="geometry" />
        </mxCell>
        <mxCell id="kLvij2d8cEy2oF4UCKkP-17" value="&amp;lt;&amp;lt;extend&amp;gt;&amp;gt;" style="text;html=1;strokeColor=none;fillColor=none;align=center;verticalAlign=middle;whiteSpace=wrap;rounded=0;" vertex="1" parent="1">
          <mxGeometry x="500" y="340" width="60" height="30" as="geometry" />
        </mxCell>
        <mxCell id="kLvij2d8cEy2oF4UCKkP-18" value="&amp;lt;&amp;lt;extend&amp;gt;&amp;gt;" style="text;html=1;strokeColor=none;fillColor=none;align=center;verticalAlign=middle;whiteSpace=wrap;rounded=0;" vertex="1" parent="1">
          <mxGeometry x="520" y="260" width="60" height="30" as="geometry" />
        </mxCell>
        <mxCell id="kLvij2d8cEy2oF4UCKkP-19" value="Đổi trạng thái phòng" style="ellipse;whiteSpace=wrap;html=1;" vertex="1" parent="1">
          <mxGeometry x="355" y="80" width="110" height="80" as="geometry" />
        </mxCell>
        <mxCell id="kLvij2d8cEy2oF4UCKkP-20" value="" style="endArrow=classic;html=1;rounded=0;dashed=1;entryX=0.5;entryY=1;entryDx=0;entryDy=0;exitX=0.5;exitY=0;exitDx=0;exitDy=0;" edge="1" parent="1" target="kLvij2d8cEy2oF4UCKkP-19" source="kLvij2d8cEy2oF4UCKkP-2">
          <mxGeometry width="50" height="50" relative="1" as="geometry">
            <mxPoint x="306" y="232" as="sourcePoint" />
            <mxPoint x="296" y="412" as="targetPoint" />
          </mxGeometry>
        </mxCell>
        <mxCell id="kLvij2d8cEy2oF4UCKkP-21" value="&amp;lt;&amp;lt;extend&amp;gt;&amp;gt;" style="text;html=1;strokeColor=none;fillColor=none;align=center;verticalAlign=middle;whiteSpace=wrap;rounded=0;" vertex="1" parent="1">
          <mxGeometry x="374" y="180" width="60" height="30" as="geometry" />
        </mxCell>
      </root>
    </mxGraphModel>
  </diagram>
</mxfile>
